<?xml version="1.0" standalone="no"?>
<!DOCTYPE svg PUBLIC "-//W3C//DTD SVG 20010904//EN"
 "http://www.w3.org/TR/2001/REC-SVG-20010904/DTD/svg10.dtd">
<svg version="1.0" xmlns="http://www.w3.org/2000/svg"
 width="48" height="48" viewBox="0 0 100 110">
<g transform="translate(0,110) scale(0.1,-0.1)"
fill="#ec0027" stroke="none">
<path d="M451 1079 c-70 -28 -395 -227 -414 -254 -21 -29 -22 -40 -22 -275 0
-235 1 -246 22 -275 24 -34 375 -243 433 -259 31 -8 45 -5 91 17 113 54 373
213 393 240 20 27 21 41 21 277 0 236 -1 250 -21 277 -11 15 -92 70 -180 121
-248 145 -268 153 -323 131z m89 -62 c121 -65 349 -202 363 -218 15 -19 17
-47 17 -246 0 -133 -4 -232 -10 -243 -6 -11 -41 -37 -78 -58 -37 -22 -122 -72
-189 -111 -67 -39 -132 -71 -145 -71 -13 0 -45 13 -73 28 -209 118 -323 186
-338 204 -15 18 -17 46 -17 248 0 202 2 230 18 248 9 12 78 56 152 98 264 151
252 146 300 121z"/>
<path d="M683 830 c-13 -5 -23 -16 -23 -25 0 -8 -9 -15 -20 -15 -13 0 -20 -7
-20 -20 0 -11 7 -20 15 -20 12 0 15 -14 15 -65 0 -56 3 -66 23 -79 29 -19 97
-32 97 -18 0 23 -13 42 -30 42 -28 0 -41 25 -38 72 3 40 5 43 36 46 24 2 32 8
32 23 0 15 -7 19 -34 19 -30 0 -33 2 -28 25 2 14 3 25 1 24 -2 0 -14 -4 -26
-9z"/>
<path d="M408 694 c-45 -14 -118 -72 -118 -94 0 -15 88 -12 113 4 38 25 114
25 124 0 3 -9 -7 -74 -22 -144 -31 -142 -29 -175 13 -191 23 -9 129 -7 137 3
1 2 5 21 8 44 7 40 7 40 -23 36 -43 -6 -47 16 -21 122 25 106 25 118 7 171
-11 30 -22 42 -47 51 -46 17 -114 16 -171 -2z"/>
<path d="M373 511 c-34 -10 -73 -26 -88 -35 -63 -42 -85 -132 -42 -181 30 -36
99 -44 162 -20 38 14 45 21 45 44 0 28 -1 28 -50 23 -45 -4 -50 -2 -61 20 -8
19 -8 31 1 48 12 23 66 50 99 50 25 0 51 26 51 51 0 24 -32 24 -117 0z"/>
</g>
</svg>
